<?xml version="1.0" encoding="UTF-8"?>
<svg width="164px" height="70px" viewBox="0 0 164 70" version="1.1" xmlns="http://www.w3.org/2000/svg" xmlns:xlink="http://www.w3.org/1999/xlink">
    <title>Group 20</title>
    <defs>
        <filter x="-11.4%" y="-35.6%" width="122.9%" height="173.3%" filterUnits="objectBoundingBox" id="filter-1">
            <feOffset dx="0" dy="0" in="SourceAlpha" result="shadowOffsetOuter1"></feOffset>
            <feGaussianBlur stdDeviation="4" in="shadowOffsetOuter1" result="shadowBlurOuter1"></feGaussianBlur>
            <feColorMatrix values="0 0 0 0 0   0 0 0 0 0   0 0 0 0 0  0 0 0 0.4 0" type="matrix" in="shadowBlurOuter1" result="shadowMatrixOuter1"></feColorMatrix>
            <feMerge>
                <feMergeNode in="shadowMatrixOuter1"></feMergeNode>
                <feMergeNode in="SourceGraphic"></feMergeNode>
            </feMerge>
        </filter>
        <polygon id="path-2" points="0 0.8542 10.699 0.8542 10.699 20 0 20"></polygon>
        <polygon id="path-4" points="0.6614 0.8542 11.3604 0.8542 11.3604 20 0.6614 20"></polygon>
        <polygon id="path-6" points="0.999 0.962 24.362 0.962 24.362 19.8512 0.999 19.8512"></polygon>
        <polygon id="path-8" points="0 44.0385 139.174 44.0385 139.174 1.0005 0 1.0005"></polygon>
    </defs>
    <g id="Welcome" stroke="none" stroke-width="1" fill="none" fill-rule="evenodd">
        <g id="Desktop-Home_menu" transform="translate(-518.000000, -24.000000)">
            <g id="Group-20" filter="url(#filter-1)" transform="translate(530.000000, 36.000000)">
                <g id="Group-3" transform="translate(0.000000, 24.038500)">
                    <mask id="mask-3" fill="white">
                        <use xlink:href="#path-2"></use>
                    </mask>
                    <g id="Clip-2"></g>
                    <path d="M1.215,20.0002 L9.493,20.0002 C10.168,20.0002 10.699,19.4582 10.699,18.7812 L10.699,2.0312 C10.699,1.3322 10.283,0.8542 9.627,0.8542 C2.136,0.8542 0,4.7662 0,9.3352 L0,18.7812 C0,19.4582 0.546,20.0002 1.215,20.0002" id="Fill-1" fill="#FEFEFE" mask="url(#mask-3)"></path>
                </g>
                <path d="M14.1486,26.8185 L14.1486,26.8645 L14.1486,27.1545 L14.1486,42.8195 L14.1486,42.8695 C14.1486,43.5655 14.5576,44.0305 15.2306,44.0305 L15.3446,44.0305 L15.3596,44.0305 L24.0006,44.0305 C24.6696,44.0305 25.2266,43.4965 25.2266,42.8195 L25.2266,38.5955 L25.2266,35.6085 L25.2266,27.1545 L25.2266,26.8645 L25.2266,26.2955 C25.2266,24.8245 22.8846,23.9845 20.0086,23.9845 L19.3556,23.9845 C16.4756,23.9845 14.1486,24.4235 14.1486,26.2955 L14.1486,26.8185 Z" id="Fill-4" fill="#FEFEFE"></path>
                <g id="Group-8" transform="translate(28.000000, 24.038500)">
                    <mask id="mask-5" fill="white">
                        <use xlink:href="#path-4"></use>
                    </mask>
                    <g id="Clip-7"></g>
                    <path d="M1.8674,20.0002 L10.1414,20.0002 C10.8224,20.0002 11.3604,19.4582 11.3604,18.7812 L11.3604,9.3352 C11.3604,4.7662 9.0914,0.8542 1.7384,0.8542 C1.0844,0.8542 0.6614,1.3322 0.6614,2.0312 L0.6614,18.7812 C0.6614,19.4582 1.1994,20.0002 1.8674,20.0002" id="Fill-6" fill="#FEFEFE" mask="url(#mask-5)"></path>
                </g>
                <g id="Group-11" transform="translate(7.000000, 0.038500)">
                    <mask id="mask-7" fill="white">
                        <use xlink:href="#path-6"></use>
                    </mask>
                    <g id="Clip-10"></g>
                    <path d="M24.362,9.0402 C24.362,11.9422 22.093,14.3012 19.239,14.4932 L19.239,19.8512 C18.425,19.3002 16.458,18.8502 13.073,18.8502 L12.291,18.8502 C8.899,18.8502 6.733,19.2402 6.129,19.8512 L6.118,19.8512 L6.118,14.4932 C3.26,14.2932 0.999,11.9372 0.999,9.0402 C0.999,6.0072 3.47,3.5552 6.511,3.5552 C6.988,3.5552 7.451,3.6152 7.893,3.7292 C8.839,2.0742 10.627,0.9612 12.68,0.9612 C14.738,0.9612 16.529,2.0742 17.476,3.7282 C17.919,3.6152 18.383,3.5552 18.861,3.5552 C21.89,3.5552 24.362,6.0072 24.362,9.0402" id="Fill-9" fill="#FEFEFE" mask="url(#mask-7)"></path>
                </g>
                <path d="M61.4694,24.4952 C62.3714,24.3452 63.3594,24.0232 64.2824,24.0232 C65.2704,24.0232 67.9554,24.1732 67.9554,25.6122 C67.9554,26.2992 67.1814,26.7932 66.6024,26.7932 C65.4644,26.7932 64.6264,25.9552 63.6604,25.4832 C62.9514,25.1392 62.1994,24.9892 61.4694,24.6882 L61.4694,24.4952 Z M56.9174,27.5442 L64.4544,27.5442 L65.0774,26.9872 L68.4924,27.5662 L67.6764,28.3182 C67.6764,28.6192 67.6764,28.9192 67.6974,29.2202 C67.6974,29.2622 67.9114,29.9712 67.9554,30.0792 C68.1484,30.6162 68.4284,31.1522 68.6634,31.6462 C69.2214,31.1742 69.7804,30.6802 70.2954,30.1642 C70.7044,29.7562 71.0694,29.3062 71.4554,28.8542 L74.5494,30.0142 C72.5724,31.3462 71.4344,31.9042 69.0934,32.4622 C69.3944,33.0642 69.7164,33.6442 70.0604,34.2232 C70.8534,35.6202 72.4654,37.4882 73.6894,38.5192 C74.0754,38.8622 74.5494,39.1412 74.9994,39.3562 L74.9764,39.5712 C73.8614,39.7212 73.3674,40.0862 73.3674,41.2882 C73.3674,41.6762 73.4964,42.0832 73.5824,42.4702 L73.3244,42.5342 C72.6584,42.0832 72.1864,41.5902 71.6054,41.0092 C70.2744,39.6142 69.2864,37.8742 68.6214,36.0702 C68.1694,34.8682 67.9554,33.5362 67.6764,32.2902 L67.6764,40.7522 C67.6764,41.2462 67.6974,41.8262 67.6124,42.3192 C67.5694,42.6632 67.3534,42.9212 67.1394,43.1572 C66.6024,43.7162 64.3044,43.8662 63.5314,43.8662 C61.7274,43.8662 62.9944,43.1362 62.0074,42.4922 C61.3624,42.0622 60.3314,41.9552 59.5584,41.8262 L59.5584,41.5032 C60.6974,41.5472 61.8134,41.5472 62.9514,41.5472 C63.8744,41.5472 64.3254,41.6112 64.3254,40.4952 L64.3474,28.9402 L56.9174,28.9402 L56.9174,27.5442 Z M60.0304,31.1522 L60.8894,30.2292 L64.1974,31.0242 L63.2954,31.9042 C62.5214,35.7702 61.4054,38.1532 58.5704,40.9242 C57.7334,41.7182 56.8954,42.4922 55.9934,43.2012 L55.7354,43.0712 C56.7444,41.5252 57.6474,39.7652 58.3344,38.0462 C58.5914,37.3592 58.8064,36.6502 59.0214,35.9412 C59.2364,35.2112 59.4504,34.4602 59.5584,33.7082 L59.7304,32.5492 L55.6934,32.5492 L55.6934,31.1522 L60.0304,31.1522 Z" id="Fill-12" fill="#FEFEFE"></path>
                <path d="M84.8371,41.4391 C84.8371,41.5471 84.7081,41.8471 84.6881,41.9551 L89.2821,41.9551 C89.4341,41.4611 89.4981,41.0091 89.5831,40.4951 L91.0011,40.6021 L91.0011,40.3221 L82.4541,40.3221 C82.9041,40.4301 84.8371,40.7731 84.8371,41.4391 L84.8371,41.4391 Z M82.4541,39.2271 L91.0011,39.2271 L91.0011,38.1321 L82.4541,38.1321 L82.4541,39.2271 Z M78.4591,36.0701 L94.9741,36.0701 L94.9741,34.9961 L78.4591,34.9961 L78.4591,36.0701 Z M78.5661,32.9351 L78.5661,24.6461 L80.7571,24.6461 L80.7571,32.8061 L82.0241,32.8061 L82.0241,31.5611 L81.0361,31.5611 L81.0361,30.5511 L82.0241,30.5511 L82.0241,29.2201 L81.0361,29.2201 L81.0361,28.2751 L82.0241,28.2751 L82.0241,26.8361 L81.0361,26.8361 L81.0361,25.8911 L82.0241,25.8911 L82.0241,24.6461 L84.1931,24.6461 L84.1931,25.8911 L85.1381,25.8911 L85.1381,26.8361 L84.1931,26.8361 L84.1931,28.2751 L85.1381,28.2751 L85.1381,29.2201 L84.1931,29.2201 L84.1931,30.5511 L85.1381,30.5511 L85.1381,31.5611 L84.1931,31.5611 L84.1931,32.8061 L85.5461,32.8061 L85.5461,24.3671 L87.8441,24.3671 L87.8441,32.8061 L89.3471,32.8061 L89.3471,31.5611 L88.2301,31.5611 L88.2301,30.5511 L89.3471,30.5511 L89.3471,29.2201 L88.2941,29.2201 L88.2941,28.2751 L89.3471,28.2751 L89.3471,26.8361 L88.2941,26.8361 L88.2941,25.8911 L89.3471,25.8911 L89.3471,24.6031 L91.4521,24.6031 L91.4521,25.8911 L92.6751,25.8911 L92.6751,26.8361 L91.4521,26.8361 L91.4521,28.2751 L92.6331,28.2751 L92.6331,29.2201 L91.4521,29.2201 L91.4521,30.5511 L92.6331,30.5511 L92.6331,31.5611 L91.4521,31.5611 L91.4521,32.8061 L93.0841,32.8061 L93.0841,24.6461 L95.4681,24.6461 L95.4681,34.6311 L93.0841,34.6311 L93.0841,33.9441 L80.6071,33.9441 L79.8771,34.5241 L77.7511,33.4941 L78.5661,32.9351 Z M82.0241,40.6881 L79.6411,40.6881 L79.6411,36.4361 L82.4541,36.4361 L82.4541,36.9721 L90.9581,36.9721 L91.7531,36.0921 L94.6081,36.8431 L93.8351,37.5521 L93.8351,40.6881 L92.4411,40.6881 C91.9671,41.1821 91.5371,41.5251 90.9791,41.9551 L95.8541,41.9551 L95.8541,43.0501 L77.5791,43.0501 L77.5791,41.9551 L82.4101,41.9551 C82.1741,41.5471 82.2171,41.1171 82.0241,40.6881 L82.0241,40.6881 Z" id="Fill-14" fill="#FEFEFE"></path>
                <path d="M110.5666,41.7184 L110.5666,28.9194 L107.9466,28.9194 L107.9466,27.5014 L110.5666,27.5014 L110.5666,24.4514 L113.8526,24.4514 L113.8526,27.5014 L116.7516,27.5014 L116.7516,28.9194 L113.8526,28.9194 L113.8526,41.7184 L117.5466,41.7184 L117.5466,43.1784 L106.2716,43.1784 L106.2506,41.7184 L110.5666,41.7184 Z M102.0186,37.1654 L104.1026,37.1654 L104.1026,28.8334 L102.0186,28.8334 L102.0186,37.1654 Z M102.0186,27.5014 L104.0166,27.5014 L104.9836,26.4704 L108.1186,27.1584 L107.2386,28.1464 L107.2386,39.7424 L104.1026,39.7424 L104.1026,38.5404 L102.0186,38.5404 L102.0186,39.7644 L99.0556,39.7644 L99.0556,26.6434 L102.0186,26.6434 L102.0186,27.5014 Z" id="Fill-16" fill="#FEFEFE"></path>
                <mask id="mask-9" fill="white">
                    <use xlink:href="#path-8"></use>
                </mask>
                <g id="Clip-19"></g>
                <path d="M125.043,37.4665 L128.93,37.4665 L128.93,34.3315 L125.043,34.3315 L125.043,37.4665 Z M121.885,31.9465 L125.043,31.9465 L125.043,32.8495 L128.844,32.8495 L129.66,31.8185 L132.924,32.5055 L132.087,33.5155 L132.087,40.0865 L128.93,40.0865 L128.93,38.9265 L125.043,38.9265 L125.043,40.1085 L121.885,40.1085 L121.885,31.9465 Z M135.007,25.1605 L135.78,24.1945 L139.174,24.8605 L138.358,25.8265 L138.358,41.3325 C138.358,42.1705 138.1,42.8785 137.284,43.2215 C136.189,43.6935 134.901,43.8015 133.719,43.8015 C132.409,43.8015 133.418,43.3075 132.603,42.5775 C131.98,42.0195 130.713,41.8265 129.939,41.7185 L129.983,41.4615 C131.099,41.5255 132.194,41.5675 133.311,41.5675 C133.526,41.5675 134.772,41.5675 134.921,41.4185 C135.029,41.2885 135.072,41.1605 135.072,40.9885 L135.072,26.5785 L121.393,26.5785 L121.393,25.1605 L135.007,25.1605 Z M134.17,28.8985 L134.17,30.3365 L120.297,30.3365 L120.297,28.9195 L134.17,28.8985 Z" id="Fill-18" fill="#FEFEFE" mask="url(#mask-9)"></path>
            </g>
        </g>
    </g>
</svg>